# xmcd CD database file
#
# Track frame offsets:
#	150
#	14645
#	31450
#	63357
#	85767
#	97620
#	124777
#	148477
#	174480
#	191915
#	204400
#	223065
#	244937
#
# Disc length: 3487 seconds
#
# Revision: 0
# Processed by: cddbd v1.5.2PL0 Copyright (c) Steve Scherf et al.
# Submitted via: CDex 1.51
#
DISCID=be0d9d0d
DTITLE=New Orleans - CD 'New Orleans Jazz Parade Kempen '94'
DYEAR=1994
DGENRE=Jazz
TTITLE0=Rod Mason's Hot Five - Struttin' with some barbecue
TTITLE1=Sumpens Swingsters - Careless love
TTITLE2=Bob Kerr's Whoopee Band - Spread a little happiness
TTITLE3=Semmel's Hot Shots - Franklin street blues
TTITLE4=Bob Kerr's Whoopee Band - Sweet georgia brown 
TTITLE5=Rod Mason's Hot Five - The girls go crazy 'bout the way I walk
TTITLE6=Les Haricots Rouges - Cerises rouges et pommiers blancs
TTITLE7=New Orleans Night Birds - When I leave the world behind
TTITLE8=Deanna Bogart - Early in the morning SQ DQ - Lonely days, lonely nights
TTITLE9=Sumpens Swingsters - Iko, iko
TTITLE10=Jazz Band Ball Orchestra - What a wonderful world 
TTITLE11=Deanna Bogart - What do you know about love 
TTITLE12=Les Haricots Rouges - Eh là-bas
EXTD=YEAR: 1994
EXTT0=
EXTT1=
EXTT2=
EXTT3=
EXTT4=
EXTT5=
EXTT6=
EXTT7=
EXTT8=
EXTT9=
EXTT10=
EXTT11=
EXTT12=
PLAYORDER=
